<svg width="399" height="488" viewBox="0 0 399 488" fill="none" xmlns="http://www.w3.org/2000/svg">
<g clip-path="url(#clip0)">
<path opacity="0.1" d="M199.021 487.362C289.035 487.362 361.973 471.255 361.973 451.32C361.973 431.386 289.035 415.278 199.021 415.278C109.007 415.278 36.0693 431.386 36.0693 451.32C36.0693 471.255 109.007 487.362 199.021 487.362Z" fill="black"/>
<path d="M395.169 168.886C395.169 168.089 395.169 167.451 395.169 166.813C395.169 166.175 395.169 165.537 395.01 164.899C395.01 164.421 395.01 163.942 394.85 163.464C394.85 163.145 394.85 162.666 394.85 162.347C394.85 161.71 394.691 160.912 394.691 160.274C394.691 159.636 394.531 158.839 394.531 158.201C394.531 157.563 394.371 156.925 394.371 156.287C394.371 155.649 394.212 155.012 394.212 154.533C394.212 153.895 394.052 153.257 393.893 152.619C393.733 151.981 393.733 151.503 393.733 151.025L393.573 150.387C393.414 149.749 393.414 149.27 393.254 148.632C393.095 147.994 393.095 147.516 392.935 147.038C392.775 146.559 392.775 145.921 392.616 145.283C392.616 144.805 392.456 144.486 392.297 144.008L392.137 142.891L391.977 142.253C391.818 141.775 391.818 141.137 391.658 140.659V140.499C391.499 140.021 391.499 139.542 391.339 139.223C391.179 138.585 391.02 138.107 390.86 137.469C390.701 136.831 390.701 136.512 390.541 136.034C390.381 135.555 390.381 135.077 390.222 134.758C390.222 134.758 390.222 134.758 390.222 134.598C390.062 133.961 389.903 133.323 389.743 132.685C389.583 132.047 389.424 131.409 389.264 130.93C388.945 130.133 388.785 129.176 388.466 128.379L387.987 126.944C387.509 125.668 387.189 124.232 386.711 122.957C386.072 121.043 385.434 119.289 384.636 117.375C384.157 116.099 383.519 114.664 383.04 113.388C382.561 112.112 381.923 110.836 381.444 109.72C380.965 108.444 380.327 107.328 379.688 106.052C379.05 104.776 378.571 103.66 377.933 102.384C377.613 101.746 377.294 101.108 376.975 100.63C376.656 99.9919 376.337 99.354 376.017 98.8755C375.698 98.2376 375.379 97.7592 375.06 97.1213C374.741 96.4834 374.421 96.005 374.102 95.3671C373.783 94.7291 373.464 94.2507 373.145 93.6128C372.825 92.9749 372.506 92.4965 372.027 91.8586C371.708 91.2206 371.389 90.7422 371.07 90.2638L370.91 89.9448C370.591 89.4664 370.272 88.988 369.953 88.3501L369.793 88.1906C369.474 87.7122 369.155 87.0742 368.676 86.5958C368.357 86.1174 367.878 85.4795 367.559 84.8416C367.239 84.2037 366.761 83.7252 366.441 83.0873L365.324 81.3331C365.005 80.8546 364.526 80.2167 364.207 79.7383V79.5788L363.09 77.9841C362.292 76.8677 361.494 75.7514 360.536 74.7945C360.057 74.3161 359.738 73.6782 359.259 73.1997C358.461 72.0834 357.504 71.1265 356.706 70.0102C355.429 68.4154 354.152 66.8206 352.716 65.3854C350.96 63.3122 349.045 61.3984 347.13 59.3252C345.693 57.8899 344.097 56.4546 342.661 55.0193L341.225 53.584C339.309 51.6703 337.235 49.9161 335.16 48.1618L334.681 47.6834C333.723 46.886 332.925 46.0886 331.968 45.4507L330.531 44.1749L330.372 44.0154L328.935 42.8991L328.776 42.7396L327.18 41.4638L325.584 40.188L323.828 38.9122C323.19 38.4337 322.711 38.1148 322.073 37.6363C321.434 37.1579 320.955 36.839 320.317 36.52C319.838 36.0416 319.2 35.7226 318.561 35.4037L316.806 34.2873L315.05 33.171L313.454 32.0546L311.379 30.7788L309.783 29.822L307.868 28.7056L306.113 27.7488C305.474 27.4298 304.836 27.1109 304.357 26.7919C303.719 26.4729 303.08 26.154 302.442 25.835L300.527 24.8782C298.611 23.9213 296.696 22.9644 294.941 22.0076C293.664 21.3697 292.387 20.7318 291.11 20.2533C287.28 18.4991 283.29 16.7448 279.14 15.3095L277.225 14.3527L275.629 13.7148C274.512 13.2363 273.235 12.9174 272.118 12.439L270.522 11.9605C270.043 11.801 269.564 11.6416 268.926 11.4821C268.287 11.3226 267.649 11.1631 267.011 10.8442C266.372 10.6847 265.734 10.3658 264.936 10.2063L263.021 9.56837L261.425 9.08994L260.307 8.77098C259.829 8.61151 259.35 8.45203 258.871 8.45203L256.956 7.9736C256.158 7.81412 255.36 7.65464 254.562 7.33569C253.923 7.17621 253.285 7.01674 252.647 6.85726C252.008 6.69778 251.37 6.5383 250.731 6.37883C248.018 5.74092 245.145 5.26249 242.273 4.78406L240.996 4.62458C240.517 4.62458 240.198 4.4651 239.719 4.4651C239.081 4.30562 238.442 4.30562 237.804 4.14615L236.846 3.98667C235.729 3.82719 234.612 3.66772 233.495 3.50824C232.537 3.34876 231.739 3.34876 230.781 3.18928L229.026 3.02981C228.387 3.02981 227.589 2.87033 226.951 2.87033L224.717 2.71085L222.801 2.55138H222.642C219.45 2.3919 216.417 2.23242 213.225 2.23242C104.697 2.23242 -19.3118 89.4664 6.06458 228.849C22.9822 321.665 119.859 390.559 198.542 451.32L201.734 448.928L203.49 447.652L206.841 445.26L210.991 442.23C212.427 441.273 213.704 440.157 215.141 439.2C219.45 436.01 223.599 432.821 227.749 429.631C228.866 428.834 229.983 427.877 231.101 427.079C232.856 425.804 234.452 424.528 236.208 423.093L239.24 420.7L242.113 418.468C243.23 417.511 244.347 416.713 245.465 415.757C246.263 415.119 247.061 414.481 247.859 413.843L250.731 411.451L251.21 411.132L254.402 408.421L255.519 407.464L258.552 404.912L258.871 404.593C260.148 403.636 261.265 402.52 262.542 401.563C263.819 400.447 265.095 399.49 266.213 398.374L266.372 398.214L269.564 395.344L270.522 394.387C271.479 393.589 272.437 392.632 273.395 391.835L273.873 391.357C274.831 390.559 275.789 389.602 276.746 388.645C277.065 388.327 277.544 388.008 277.863 387.689C278.661 387.051 279.3 386.413 279.938 385.775C280.577 385.137 281.215 384.659 281.853 384.021C282.492 383.383 282.971 382.904 283.609 382.426L285.205 380.991C286.003 380.193 286.801 379.555 287.599 378.758L288.557 377.961L291.429 375.249L292.068 374.611L294.302 372.538C294.941 371.9 295.739 371.103 296.377 370.465C296.856 369.987 297.175 369.668 297.654 369.189C298.292 368.551 298.771 367.913 299.409 367.435C300.048 366.797 300.846 366 301.484 365.362C301.803 365.043 302.282 364.564 302.601 364.245C303.399 363.448 304.038 362.651 304.836 362.013C305.315 361.534 305.634 361.056 306.113 360.737C306.751 360.099 307.389 359.302 308.028 358.664C308.507 358.185 308.985 357.707 309.464 357.228C310.103 356.431 310.901 355.634 311.539 354.836C311.858 354.517 312.177 354.039 312.497 353.72C313.135 353.082 313.773 352.285 314.412 351.647C315.05 351.009 315.529 350.371 316.167 349.733C316.487 349.255 316.965 348.936 317.285 348.457C318.083 347.5 319.04 346.544 319.838 345.587C320.955 344.311 321.913 343.194 322.871 341.919L324.467 340.005L325.265 339.048C325.743 338.57 326.063 338.091 326.382 337.613C327.499 336.177 328.616 334.742 329.733 333.307C330.053 332.828 330.531 332.35 330.851 331.872C332.606 329.479 334.521 327.247 336.277 324.855C336.756 324.217 337.235 323.579 337.713 322.941L339.15 321.027C339.629 320.389 340.107 319.751 340.586 319.113C341.065 318.476 341.544 317.838 342.023 317.2C342.501 316.562 342.98 315.924 343.459 315.286C344.417 313.851 345.374 312.415 346.332 310.98C346.651 310.342 347.13 309.864 347.449 309.226C347.768 308.588 348.247 307.95 348.726 307.312C349.205 306.674 349.524 306.036 350.003 305.398C350.481 304.761 350.801 303.963 351.279 303.325C351.758 302.687 352.077 301.89 352.556 301.252C353.035 300.614 353.354 299.817 353.833 299.179L355.11 297.106C356.387 295.032 357.504 292.959 358.781 290.886C359.259 290.248 359.579 289.451 359.898 288.813C361.973 285.145 363.888 281.317 365.963 277.649C366.282 277.012 366.601 276.533 366.761 275.895C367.399 274.619 368.037 273.503 368.516 272.227C368.835 271.749 368.995 271.111 369.314 270.632C369.633 270.154 369.793 269.676 369.953 269.197C371.07 266.964 372.027 264.732 372.985 262.499C373.304 261.702 373.623 260.904 373.943 260.266C374.262 259.469 374.581 258.831 374.9 258.034C376.017 255.482 376.975 253.09 377.933 250.538C378.252 249.9 378.411 249.262 378.731 248.625C379.05 247.827 379.369 247.03 379.688 246.232C382.561 238.418 385.274 230.285 387.668 221.992C387.987 221.195 388.147 220.238 388.466 219.44C389.583 215.134 390.701 210.828 391.818 206.523C394.531 193.445 395.648 181.166 395.169 168.886ZM298.771 217.208C296.696 229.647 292.227 241.608 285.524 252.293C278.821 262.978 269.883 272.227 259.509 279.404C242.113 294.076 220.727 303.006 198.063 304.92C147.789 309.066 105.974 256.439 99.1114 211.307C89.8546 150.227 138.852 88.988 203.011 93.4533C214.343 94.2507 225.515 96.8023 235.889 101.268C279.619 120.086 306.911 168.408 298.771 217.208Z" fill="#F4F4FF"/>
<path d="M391.818 205.566C390.86 210.031 389.743 214.337 388.466 218.483C388.307 219.281 387.988 220.238 387.668 221.035C385.274 229.328 382.721 237.461 379.688 245.276C379.369 246.073 379.05 246.87 378.731 247.668C378.412 248.306 378.252 248.944 377.933 249.581C376.975 252.133 375.858 254.525 374.9 257.077C374.581 257.874 374.262 258.512 373.943 259.31C373.624 260.107 373.304 260.904 372.985 261.542C372.028 263.775 370.91 266.008 369.953 268.24C369.793 268.719 369.474 269.197 369.314 269.676C369.155 270.154 368.836 270.792 368.516 271.27C367.878 272.546 367.24 273.822 366.761 274.938C366.442 275.576 366.122 276.055 365.963 276.693C364.048 280.52 361.973 284.188 359.898 287.856C359.579 288.494 359.1 289.291 358.781 289.929C357.504 292.002 356.387 294.076 355.11 296.149L353.833 298.222C353.354 298.86 353.035 299.657 352.556 300.295C352.078 300.933 351.758 301.73 351.28 302.368C350.801 303.006 350.482 303.804 350.003 304.442C349.524 305.079 349.205 305.717 348.726 306.355C348.247 306.993 347.928 307.631 347.449 308.269C346.97 308.907 346.651 309.385 346.332 310.023C345.374 311.459 344.417 312.894 343.459 314.329C342.98 314.967 342.502 315.605 342.023 316.243C341.544 316.881 341.065 317.519 340.586 318.157C340.108 318.794 339.629 319.432 339.15 320.07L337.714 321.984C337.235 322.622 336.756 323.26 336.277 323.898C334.522 326.29 332.766 328.682 330.851 330.915C330.532 331.393 330.053 331.872 329.734 332.35C328.616 333.785 327.499 335.221 326.382 336.656C326.063 337.134 325.584 337.613 325.265 338.091L324.467 339.048L322.871 340.962C321.913 342.238 320.796 343.354 319.838 344.63C319.04 345.587 318.083 346.544 317.285 347.5C316.966 347.979 316.646 348.298 316.168 348.776C315.529 349.414 315.05 350.052 314.412 350.69C313.774 351.328 313.135 352.125 312.497 352.763C312.178 353.082 311.858 353.561 311.539 353.879C310.901 354.677 310.103 355.474 309.464 356.272C308.986 356.75 308.507 357.228 308.028 357.707C307.39 358.345 306.751 359.142 306.113 359.78C305.634 360.259 305.315 360.737 304.836 361.056C304.038 361.853 303.4 362.651 302.602 363.289C302.282 363.608 301.804 364.086 301.484 364.405C300.846 365.043 300.048 365.84 299.41 366.478C298.771 367.116 298.292 367.754 297.654 368.232C297.175 368.711 296.856 369.03 296.377 369.508C295.739 370.146 294.941 370.944 294.302 371.581L292.068 373.655L291.43 374.293L288.557 377.004L287.759 377.961C286.961 378.758 286.163 379.396 285.365 380.193L283.769 381.628C283.13 382.107 282.652 382.745 282.013 383.223C281.375 383.702 280.736 384.34 280.098 384.978C279.46 385.615 278.662 386.253 278.023 386.891C277.704 387.21 277.225 387.529 276.906 387.848C275.948 388.805 274.991 389.602 274.033 390.559L273.554 391.038C272.597 391.835 271.639 392.792 270.682 393.589L269.724 394.546L266.532 397.417L266.372 397.576C265.096 398.693 263.819 399.649 262.702 400.766C261.584 401.882 260.308 402.839 259.031 403.796L258.712 404.115L255.679 406.666L254.562 407.623L251.37 410.175L250.891 410.494L248.018 412.886C247.22 413.524 246.422 414.162 245.624 414.8C244.507 415.757 243.39 416.554 242.273 417.511L239.4 419.744L236.368 422.136C234.612 423.411 233.016 424.847 231.26 426.123C230.143 426.92 229.026 427.877 227.909 428.674C223.759 431.864 219.45 435.053 215.3 438.243C213.864 439.2 212.587 440.316 211.151 441.273L207.001 444.303L203.65 446.695L201.894 447.971C206.842 421.817 213.385 395.822 218.971 369.668C224.078 345.268 228.228 320.549 231.42 295.83C241.634 291.524 251.051 285.783 259.51 278.606C269.884 271.43 278.821 262.18 285.524 251.495C292.228 240.81 296.856 228.849 298.771 216.41C306.911 167.61 279.779 119.289 235.729 100.63C233.016 67.618 228.707 34.7658 222.642 2.23242H222.802L224.717 2.3919L226.951 2.55138C227.59 2.55138 228.388 2.71085 229.026 2.71085L230.782 2.87033C231.739 3.02981 232.697 3.02981 233.495 3.18928C234.612 3.34876 235.729 3.50824 236.846 3.66772L237.804 3.82719C238.442 3.98667 239.081 3.98667 239.719 4.14615C240.198 4.14615 240.517 4.30562 240.996 4.30562L242.273 4.4651C245.146 4.94353 247.859 5.42196 250.732 6.05987C251.37 6.21935 252.008 6.37883 252.647 6.5383C253.285 6.69778 253.924 6.85726 254.562 7.01674C255.36 7.17621 256.158 7.33569 256.956 7.65464L258.871 8.13307C259.35 8.29255 259.829 8.29255 260.308 8.45203L261.425 8.77098L263.021 9.24941L265.096 9.88732C265.734 10.0468 266.532 10.3658 267.17 10.5252C267.809 10.6847 268.447 10.8442 269.086 11.1631C269.564 11.3226 270.043 11.4821 270.682 11.6416L272.278 12.12C273.395 12.439 274.672 12.9174 275.789 13.3958L277.385 14.0337L279.14 14.6716C283.13 16.2664 287.12 17.8612 291.11 19.6154C292.387 20.2533 293.664 20.7318 294.941 21.3697C296.856 22.3265 298.771 23.2834 300.527 24.2403L302.442 25.1971C303.08 25.5161 303.719 25.835 304.357 26.154C304.996 26.4729 305.634 26.7919 306.113 27.1109L307.709 28.0677L309.624 29.1841L311.22 30.1409L313.295 31.4167L314.891 32.5331L316.646 33.6494L318.402 34.7658C319.04 35.0847 319.519 35.5631 320.158 35.8821C320.796 36.201 321.275 36.6795 321.913 37.1579C322.552 37.6363 323.03 37.9553 323.669 38.4337L325.424 39.7095L327.02 40.9854L328.616 42.2612L328.776 42.4207L330.212 43.537L330.372 43.6965L331.808 44.9723C332.766 45.7697 333.724 46.5671 334.522 47.205L335 47.6834C337.075 49.4376 339.15 51.1919 341.065 53.1056L342.502 54.5409C343.938 55.9762 345.374 57.4115 346.97 58.8468C348.886 60.7605 350.801 62.8337 352.556 64.9069C353.993 66.5017 355.27 67.937 356.546 69.5318C357.504 70.6481 358.302 71.605 359.1 72.7213C359.579 73.1997 359.898 73.8376 360.377 74.3161C361.175 75.4324 362.132 76.5488 362.93 77.5056L364.048 79.1004V79.2599C364.367 79.7383 364.846 80.3762 365.165 80.8546L366.282 82.6089C366.601 83.2468 367.08 83.7252 367.399 84.3631C367.718 85.001 368.197 85.4795 368.516 86.1174C368.836 86.7553 369.155 87.2337 369.634 87.7122L369.793 87.8716C370.112 88.3501 370.432 88.8285 370.751 89.3069L370.91 89.6259C371.23 90.1043 371.549 90.7422 371.868 91.2206C372.187 91.6991 372.506 92.337 372.985 92.9749C373.304 93.6128 373.624 94.0912 373.943 94.7291C374.262 95.3671 374.581 95.8455 374.9 96.4834C375.22 97.1213 375.539 97.5997 375.858 98.2376C376.177 98.8755 376.496 99.354 376.816 99.9919C377.135 100.63 377.454 101.268 377.773 101.746C378.412 103.022 379.05 104.138 379.529 105.414C380.167 106.69 380.646 107.806 381.284 109.082C381.763 110.358 382.402 111.634 382.88 112.75C383.359 114.026 383.998 115.302 384.476 116.737C385.115 118.491 385.913 120.405 386.551 122.319C387.03 123.594 387.509 125.03 387.828 126.306L388.307 127.741C388.626 128.538 388.786 129.495 389.105 130.293C389.264 130.93 389.424 131.568 389.584 132.047C389.743 132.685 389.903 133.323 390.062 133.961C390.062 133.961 390.062 133.961 390.062 134.12C390.222 134.598 390.222 135.077 390.382 135.396C390.541 135.874 390.701 136.353 390.701 136.831C390.86 137.31 391.02 137.947 391.18 138.585C391.339 139.064 391.339 139.542 391.499 139.861V140.021C391.658 140.499 391.818 141.137 391.818 141.615L391.978 142.253L392.137 143.37C392.297 143.848 392.297 144.167 392.456 144.645C392.616 145.283 392.616 145.762 392.776 146.4C392.935 147.038 392.935 147.516 393.095 147.995C393.254 148.473 393.254 149.111 393.414 149.749L393.574 150.387C393.733 150.865 393.733 151.503 393.733 151.981C393.733 152.46 393.893 153.257 394.052 153.895C394.052 154.533 394.212 155.171 394.212 155.649C394.212 156.287 394.372 156.925 394.372 157.563C394.372 158.201 394.531 158.998 394.531 159.636C394.531 160.274 394.691 161.072 394.691 161.71C394.691 162.028 394.691 162.347 394.691 162.826C394.691 163.304 394.691 163.783 394.85 164.261C394.85 164.899 394.85 165.537 395.01 166.175C395.01 166.813 395.01 167.61 395.01 168.248C395.489 181.166 394.372 193.445 391.818 205.566Z" fill="#DDDDFF"/>
<path d="M192.478 307.95C170.453 307.95 148.588 297.744 130.234 278.607C112.518 260.267 99.9097 235.229 96.2389 211.786C91.4509 180.209 101.825 147.038 124.009 123.116C133.745 112.431 145.715 103.979 159.121 98.2379C173.006 92.3372 188.168 89.7856 203.171 90.9019C233.016 92.9752 259.988 107.169 278.981 131.25C298.452 155.809 306.592 187.386 301.644 217.686C299.569 230.444 294.941 242.724 287.918 253.728C281.056 264.732 271.958 274.141 261.265 281.637C243.55 296.627 221.525 305.718 198.383 307.791C196.308 307.95 194.393 307.95 192.478 307.95ZM196.468 96.0052C184.338 96.0052 172.368 98.3974 161.196 103.182C148.588 108.604 137.256 116.578 127.999 126.784C106.932 149.749 97.1965 181.166 101.665 210.988C105.017 233.315 117.146 257.237 134.064 274.779C152.897 294.235 175.4 304.123 197.744 302.209C219.769 300.295 240.677 291.524 257.594 277.331L257.754 277.171C267.809 270.154 276.427 261.224 282.971 250.858C289.514 240.492 293.983 228.85 295.898 216.729C300.686 187.864 292.866 157.882 274.352 134.439C256.318 111.634 230.782 98.0784 202.532 96.1647C200.617 96.1647 198.542 96.0052 196.468 96.0052Z" fill="#8B254A"/>
<path d="M391.977 130.292C386.391 110.996 377.294 92.6559 365.165 76.5487C352.875 60.1225 338.033 45.7696 321.275 34.1278C304.038 22.3265 285.045 13.2363 265.095 7.33561C245.145 1.59444 224.238 -0.797719 203.49 0.159144C185.295 1.11601 167.261 4.14607 149.864 9.24934C131.989 14.5121 114.912 21.848 98.7922 31.0977C82.6726 40.3474 67.8298 51.5108 54.583 64.5879C41.1766 77.665 30.0046 92.6559 21.067 109.082C11.6506 126.146 5.42621 144.645 2.39381 163.783C-0.957788 184.834 -0.638588 206.363 3.03221 227.414C6.70301 248.465 14.3638 268.719 24.8974 287.377C35.7502 306.834 49.6354 324.536 64.6378 340.962C80.4382 358.185 97.675 374.133 115.55 389.283C133.585 404.593 152.099 419.106 170.931 433.458C179.55 440.156 188.328 446.695 196.946 453.393C197.265 453.872 197.904 454.031 198.383 454.19C199.021 454.19 199.5 454.031 199.979 453.712C218.492 440.316 236.846 426.441 254.562 411.929C271.958 397.895 288.397 382.745 304.038 366.797C319.359 351.009 333.404 334.104 346.013 315.924C358.781 297.584 369.474 277.968 378.092 257.396C386.87 236.504 394.371 214.018 397.085 191.372C399.319 170.8 397.723 150.068 391.977 130.292ZM391.339 192.967C389.743 204.13 386.87 215.294 383.519 226.138C370.591 268.24 348.566 306.993 320.157 340.643C291.908 374.292 258.392 402.998 223.44 429.472C215.3 435.691 207.001 441.911 198.542 447.971C162.632 420.222 125.924 393.111 92.887 362.013C61.4458 332.35 31.7602 298.062 16.4386 257.077C2.23421 219.121 1.43621 175.424 14.5234 137.15C26.4934 102.543 49.795 72.7212 79.0018 50.8729C108.368 28.865 142.203 14.5121 178.113 8.45195C196.627 5.26241 215.46 4.6245 234.293 6.69771C254.721 9.08986 274.512 14.9905 293.025 23.9212C328.935 41.3042 359.419 70.3291 376.975 106.211C385.593 123.754 390.86 142.891 392.297 162.507C392.935 172.713 392.616 182.92 391.339 192.967Z" fill="#8B254A"/>
<path fill-rule="evenodd" clip-rule="evenodd" d="M137.096 129.655C138.852 131.09 140.288 132.207 141.565 133.323C147.47 137.948 153.854 141.616 161.515 142.573C165.346 143.051 169.336 143.37 173.006 141.935C174.762 141.297 176.518 140.34 178.114 139.224C180.348 137.629 181.625 135.396 181.784 132.526C181.784 131.25 181.944 130.133 182.104 128.858C184.178 128.539 185.455 129.974 187.051 130.771C191.839 133.164 196.787 134.918 202.213 134.758C203.65 134.758 205.086 134.758 206.363 134.28C210.991 133.004 213.385 129.815 213.066 125.349C213.066 125.03 212.906 124.711 212.906 124.233C212.906 123.914 213.066 123.595 213.385 122.957C214.822 123.595 216.098 124.392 217.535 125.03C222.961 127.741 228.707 129.336 234.772 129.336C240.198 129.336 246.422 126.466 248.018 118.651C248.338 117.056 248.497 115.462 248.816 113.548C249.774 114.345 250.732 114.983 251.37 115.621C254.881 119.608 258.233 123.754 261.584 127.741C265.894 133.164 270.841 137.948 276.587 141.775C278.183 142.732 279.14 144.008 279.14 146.081C279.46 152.939 280.577 159.796 280.258 166.654C279.779 179.093 277.066 191.213 268.766 201.26C258.712 213.381 246.422 222.949 232.218 229.488C224.717 232.996 216.577 234.75 208.438 236.505C193.595 239.694 179.231 237.781 165.186 233.475C152.099 229.328 141.406 221.354 132.308 211.148C123.211 200.941 117.785 188.662 113.476 175.903C113.316 175.425 113.316 174.787 113.316 174.947C116.189 169.205 118.902 163.783 121.615 158.52C126.084 149.909 130.553 141.297 135.181 132.685C135.66 131.888 136.298 131.09 137.096 129.655ZM224.398 187.705C224.398 185.153 223.759 182.761 222.482 180.528C221.844 179.571 221.046 178.933 219.769 179.412C218.652 179.89 217.854 181.166 218.333 182.442C218.492 182.92 218.812 183.399 218.971 183.877C220.408 187.386 219.45 190.894 218.492 194.243C217.694 196.795 215.62 198.39 213.226 199.028C207.32 200.463 202.852 199.347 200.298 193.924C199.819 192.808 199.181 191.692 198.862 190.575C198.383 188.821 198.383 187.067 197.904 185.472C197.744 184.834 196.787 184.037 196.148 183.877C195.51 183.877 194.393 184.515 194.074 185.153C193.595 186.269 193.435 187.705 193.754 188.821C194.552 191.532 195.35 194.243 196.627 196.795C200.458 205.247 210.672 205.885 216.098 203.174C219.929 201.26 222.642 198.39 223.44 194.084C223.759 191.851 224.078 189.778 224.398 187.705ZM168.857 173.671C168.697 172.873 168.378 171.119 167.74 169.524C166.144 165.856 162.154 164.421 158.483 166.175C154.972 167.77 153.376 170.8 152.897 174.468C152.578 177.498 153.216 180.528 156.089 182.283C158.802 183.877 161.834 183.877 164.707 182.601C168.059 180.847 168.857 177.977 168.857 173.671ZM239.719 166.654C244.348 167.292 248.816 160.434 247.22 156.288C246.103 153.417 244.986 150.547 241.634 149.749C237.964 148.952 235.57 151.344 233.654 153.896C231.58 156.607 232.058 159.637 233.335 162.507C234.612 164.899 236.527 166.654 239.719 166.654Z" fill="#FFF6F9"/>
<path fill-rule="evenodd" clip-rule="evenodd" d="M278.183 136.353C277.385 136.194 276.906 136.194 276.427 135.875C273.235 132.845 269.724 130.133 266.851 126.784C263.18 122.798 259.829 118.332 256.318 114.186C253.285 110.677 250.093 107.488 247.061 103.979C245.944 102.703 244.667 102.544 243.23 103.182C241.475 103.82 240.996 104.777 242.113 106.371C244.826 110.518 244.348 114.824 243.23 119.13C242.273 122.479 239.56 124.233 236.048 124.552C233.814 124.711 231.42 124.392 229.186 124.073C223.6 123.116 218.492 120.405 213.864 117.216C212.428 116.259 210.991 115.143 209.395 114.505C208.597 114.186 207.161 114.186 206.363 114.664C205.086 115.302 205.086 116.737 205.405 118.013C205.884 119.448 206.682 120.884 207.32 122.319C207.799 123.435 208.278 124.552 208.438 125.828C208.757 127.103 208.119 128.379 206.842 128.858C205.405 129.496 203.809 129.974 202.373 129.974C199.021 130.133 195.67 129.336 192.637 127.901C186.892 125.349 181.625 122.319 177.156 117.854C176.518 117.216 175.879 116.737 175.081 116.418C174.602 116.259 173.645 116.418 173.166 116.897C172.687 117.375 172.368 118.173 172.528 118.811C172.847 119.767 173.485 120.724 173.964 121.522C175.081 123.595 176.358 125.509 176.996 127.582C178.592 132.526 176.837 135.875 171.889 137.31C167.42 138.586 162.792 138.267 158.323 136.832C150.982 134.439 144.598 130.293 139.65 124.392C139.49 124.073 139.331 123.754 139.012 123.595C137.894 122.479 136.458 122.479 135.341 123.754C134.543 124.711 133.904 125.668 133.266 126.784C126.084 139.383 119.062 152.141 113.476 165.537C112.997 166.813 112.199 168.089 111.401 169.843C110.762 168.727 110.124 168.089 109.805 167.451C107.411 160.913 105.815 154.215 104.698 147.357C104.378 145.284 104.219 143.211 104.219 140.978C103.58 127.263 106.453 114.345 111.56 101.747C112.678 99.1949 113.635 96.4838 114.752 93.9322C121.296 78.9413 132.787 68.5753 146.832 60.7609C157.206 54.8603 168.697 51.8302 180.348 49.757C186.094 48.8001 191.839 47.8433 197.744 47.8433C219.131 47.8433 237.804 55.0197 253.285 70.1701C262.382 79.2603 268.128 90.2642 271.32 102.544C273.235 109.72 274.991 116.897 276.746 124.073C277.704 128.22 278.502 132.207 278.183 136.353Z" fill="#DF6490"/>
<path fill-rule="evenodd" clip-rule="evenodd" d="M244.667 251.336C241.635 253.888 237.964 254.526 234.612 255.482C220.089 259.31 205.405 261.862 189.924 260.745C188.647 257.875 189.605 254.845 189.605 251.974C189.605 249.103 189.924 246.392 190.084 243.362C207.64 243.203 223.759 238.897 239.4 231.88C239.879 232.199 240.358 232.518 240.517 232.837C242.752 238.897 243.231 245.276 244.667 251.336Z" fill="#3CDC8C"/>
<path fill-rule="evenodd" clip-rule="evenodd" d="M188.168 283.072C188.008 277.969 188.168 273.184 188.487 268.4C188.487 267.603 188.966 266.805 189.445 265.689C195.829 265.529 202.213 265.37 208.437 265.051C214.662 264.732 220.726 263.616 226.632 262.021C232.696 260.426 238.921 258.991 245.464 257.396C245.624 257.715 246.262 258.512 246.422 259.15C247.22 262.818 247.858 266.327 248.497 270.314C244.666 273.025 240.836 275.576 236.367 276.533C225.993 278.766 215.779 280.999 205.405 283.072C200.936 283.869 196.308 284.667 191.839 284.029C190.722 283.71 189.604 283.391 188.168 283.072Z" fill="#FAC632"/>
<path fill-rule="evenodd" clip-rule="evenodd" d="M65.4361 257.556C64.7977 255.004 64.9573 252.931 66.2341 251.017C66.7129 250.22 67.3513 249.423 67.3513 248.625C67.3513 247.828 67.0321 246.871 66.3937 246.393C66.0745 246.074 64.9573 246.074 64.4785 246.233C63.6805 246.552 63.0421 247.19 62.4037 247.828C60.6481 249.263 58.8925 249.423 56.9773 248.466C56.0197 247.987 54.7429 247.668 55.0621 246.393C55.2217 245.436 56.1793 244.638 56.9773 244C58.0945 243.203 59.6905 243.044 60.8077 242.406C61.4461 242.087 61.9249 240.97 61.9249 240.173C61.7653 239.535 60.9673 238.738 60.3289 238.419C59.3713 237.94 58.2541 238.259 57.2965 237.781C55.7005 237.143 54.1045 236.345 52.5085 235.548C52.1893 235.389 51.8701 234.591 51.8701 234.272C51.8701 233.953 52.5085 233.315 52.8277 233.315C54.4237 233.156 56.0197 233.156 57.6157 233.156C58.7329 233.156 59.6905 233.156 60.8077 232.837C62.0845 232.518 62.7229 230.285 61.7653 229.328C60.8077 228.531 59.8501 227.893 58.8925 227.096C56.9773 225.66 55.3813 224.225 54.4237 221.993C53.6257 219.919 54.5833 218.325 56.6581 218.484C61.4461 218.803 66.0745 219.919 69.9049 223.109C71.3413 224.225 73.0969 225.182 74.8525 225.979C76.9273 226.777 78.2041 225.342 77.7253 223.109C77.5657 222.152 77.0869 221.036 77.0869 220.079C76.9273 217.527 77.8849 215.294 79.8001 213.381C81.2365 212.105 82.8325 212.105 83.7901 213.7C84.7477 215.135 85.5457 216.889 86.0245 218.484C87.3013 223.109 87.7801 227.893 87.3013 232.677C86.8225 236.664 86.1841 240.651 85.3861 244.638C85.2265 245.755 84.5881 247.19 83.7901 247.987C79.9597 251.655 76.2889 255.483 70.8625 257.077C69.2665 257.556 67.6705 258.034 65.4361 257.556Z" fill="#FFF6F9"/>
<path fill-rule="evenodd" clip-rule="evenodd" d="M313.774 160.274C316.168 160.115 316.806 161.391 317.445 162.507C318.243 163.942 318.721 165.378 319.679 166.654C320.158 167.132 321.275 167.61 321.913 167.451C322.552 167.291 323.509 166.494 323.669 165.697C323.988 163.783 323.988 161.869 323.988 159.956C323.988 156.766 324.786 153.576 326.542 150.865C327.34 149.749 328.138 148.473 330.053 148.473C330.372 149.271 331.17 150.227 331.17 151.025C331.17 154.214 331.011 157.404 330.851 160.434C330.691 162.029 330.372 163.623 330.532 165.059C330.532 165.537 331.33 166.335 331.809 166.494C332.607 166.654 333.883 166.335 334.203 165.856C334.841 164.74 335.16 163.305 335.639 161.869C336.916 158.201 338.831 155.171 342.502 153.576C344.577 155.331 344.257 157.404 343.459 159.477C342.661 161.55 341.225 162.986 339.629 164.421C338.512 165.537 337.235 166.494 336.277 167.77C335.958 168.248 335.799 169.205 336.118 169.684C336.597 170.322 337.395 170.959 338.193 170.959C339.15 170.959 340.108 170.322 341.225 170.003C343.14 169.524 344.896 168.886 346.811 168.567C348.247 168.248 349.524 169.205 350.163 170.64C350.801 172.076 350.641 173.671 349.365 174.468C348.247 175.265 346.971 175.903 345.694 176.382C344.736 176.701 343.619 176.701 342.502 176.86C341.385 177.02 340.427 177.498 340.108 178.614C339.789 180.05 340.587 180.847 341.863 181.485C342.981 182.123 344.098 182.761 344.896 183.558C345.534 184.037 346.013 185.153 345.853 185.791C345.694 187.067 344.577 187.386 343.459 187.545C342.661 187.705 341.704 187.864 340.906 187.705C335.639 186.907 330.532 186.11 325.265 184.993C323.031 184.515 320.956 183.399 319.998 181.006C319.519 179.731 318.562 179.093 317.604 178.455C315.689 177.179 314.572 175.425 314.093 173.352C312.976 169.205 312.337 164.899 313.774 160.274Z" fill="#FFF6F9"/>
<path fill-rule="evenodd" clip-rule="evenodd" d="M107.411 175.584C111.72 186.429 116.827 196.954 122.732 207.48C121.934 207.799 121.455 208.118 121.136 208.118C111.56 207.001 103.101 203.493 96.079 196.795C95.4406 196.157 94.8022 195.519 94.1638 194.881C89.5354 190.097 90.0142 184.355 92.7274 179.252C94.483 175.584 97.675 173.83 101.825 174.149C103.74 173.989 105.655 174.149 107.411 175.584Z" fill="#FFF6F9"/>
<path fill-rule="evenodd" clip-rule="evenodd" d="M284.886 167.611C284.727 163.943 284.407 161.232 284.727 158.52C285.205 154.055 284.886 149.749 284.088 145.443C283.45 141.935 283.45 138.426 283.929 134.918C284.567 129.974 287.6 126.625 292.228 124.871C293.984 124.073 295.739 124.392 297.175 125.668C298.771 127.103 300.048 128.858 300.687 130.931C301.804 134.599 301.963 138.267 301.325 141.935C300.048 148.314 293.983 160.594 284.886 167.611Z" fill="#FFF6F9"/>
<path fill-rule="evenodd" clip-rule="evenodd" d="M153.375 185.791C145.236 183.399 138.054 188.821 135.181 196.317C132.308 203.652 137.894 211.945 145.395 213.062C152.099 214.178 157.844 210.988 160.398 204.928C160.557 204.769 160.717 204.609 160.877 204.29C165.824 197.114 161.355 188.024 153.375 185.791Z" fill="#F8CFDD"/>
<path fill-rule="evenodd" clip-rule="evenodd" d="M269.565 162.348C267.011 160.753 263.979 160.115 260.946 160.593C259.191 160.274 257.435 160.434 255.839 160.753C250.732 161.71 247.221 166.334 246.742 171.438C246.263 176.063 249.136 180.049 252.647 182.761C256.158 185.472 260.467 185.95 264.777 185.312C269.724 184.674 273.555 180.049 275.151 175.584C276.906 170.321 273.874 165.059 269.565 162.348Z" fill="#F8CFDD"/>
<path fill-rule="evenodd" clip-rule="evenodd" d="M181.944 304.123C182.583 292.002 183.381 279.723 184.019 267.602C184.179 263.934 184.977 260.266 184.179 256.599C183.859 255.004 184.657 253.09 184.817 251.336C184.977 250.06 184.817 248.625 184.817 247.189C184.338 247.189 183.859 247.189 183.7 247.349C172.687 256.12 159.919 260.904 146.194 263.775C136.299 265.848 126.563 265.689 116.827 262.818C109.167 260.426 101.985 257.236 94.9621 253.409C93.0469 252.452 91.2913 251.336 89.5357 250.219C87.3013 250.379 86.5033 252.133 85.2265 253.409C81.7153 256.599 78.0445 259.788 73.4161 261.223C71.9797 261.702 70.3837 262.18 68.7877 262.499C63.5209 263.297 61.2865 261.702 60.3289 256.439C60.1693 255.801 60.0097 255.004 59.8501 254.366C58.2541 253.887 56.6581 253.728 55.2217 253.09C50.5933 251.336 49.3165 248.784 50.7529 244C50.9125 243.362 51.2317 242.724 51.7105 241.767C50.7529 240.97 49.7953 240.172 48.9973 239.375C45.1669 236.026 45.4861 232.199 49.7953 229.487C50.4337 229.168 51.0721 228.85 52.0297 228.531C51.3913 227.255 50.9125 226.298 50.4337 225.182C49.4761 223.427 49.1569 221.514 49.4761 219.6C49.7953 216.41 51.7105 214.497 55.0621 214.337C59.2117 214.018 63.2017 214.656 67.0321 216.41C68.6281 217.048 70.2241 217.846 72.1393 218.643C72.6181 217.367 73.2565 216.091 73.7353 214.816C74.5333 212.583 75.9697 210.829 77.8849 209.393C81.3961 207.001 85.2265 207.32 87.6205 210.669C89.0569 212.583 90.0145 214.975 90.8125 217.367C92.5681 222.789 92.4085 228.531 92.0893 234.272C91.9297 236.185 91.6105 237.94 91.9297 240.013C92.2489 241.608 91.7701 243.521 91.4509 245.435C92.4085 246.073 93.3661 246.87 94.3237 247.508C101.985 252.293 110.284 255.961 118.902 258.512C127.042 260.904 135.341 260.745 143.64 259.629C153.376 258.193 162.473 254.844 171.091 250.379C174.603 248.465 178.273 246.551 180.827 243.521C180.667 242.086 179.55 242.246 178.752 242.086C170.613 240.81 162.952 238.578 155.451 235.229C146.034 230.763 138.054 224.544 130.872 217.048C129.595 215.613 128.159 214.178 127.042 212.902C117.625 214.018 109.167 211.148 101.187 206.682C97.1965 204.45 93.5257 201.579 90.4933 197.911C85.2265 191.691 84.9073 181.804 89.8549 175.265C92.4085 171.916 95.9197 169.843 100.229 169.684C101.825 169.684 103.261 169.524 105.177 169.524C104.857 168.089 104.538 166.813 104.219 165.697C102.942 159.955 101.506 154.374 100.229 148.633C98.1541 140.18 98.9521 131.728 100.548 123.435C103.102 110.358 107.571 97.9188 113.955 86.1175C116.987 80.5358 120.977 75.4325 125.605 71.1266C135.341 62.0364 146.194 55.1789 158.802 50.873C171.411 46.7266 184.338 44.175 197.745 43.5371C207.321 43.2181 216.418 45.1319 225.355 48.0025C237.325 51.8299 247.699 58.3685 256.637 67.2992C257.275 67.9371 257.754 68.894 258.552 69.2129C262.063 70.4887 263.34 73.6783 264.936 76.5489C268.767 83.5658 272.916 90.4234 275.15 98.0783C277.704 106.69 279.619 115.461 281.854 124.233C282.013 124.711 282.173 125.189 282.333 126.146C283.13 125.508 283.769 125.189 284.567 124.711C286.482 123.435 288.238 122 290.312 121.043C294.303 119.289 297.814 119.927 301.006 122.957C303.719 125.668 305.475 128.857 306.113 132.685C306.911 137.948 306.592 143.21 304.517 148.314C300.846 157.723 295.26 165.856 287.759 172.395C285.525 174.308 284.248 176.382 283.928 179.412C282.492 191.053 276.747 200.782 268.926 209.234C262.702 215.772 255.999 221.833 248.338 226.617C247.38 227.255 246.423 228.052 244.986 229.168C246.263 229.647 247.061 229.966 247.859 229.966C260.148 229.966 272.278 228.531 283.609 223.906C291.909 220.557 298.452 215.134 303.559 207.799C305.475 205.087 307.23 202.057 308.826 199.187C311.38 194.562 313.774 189.778 316.168 184.993C315.529 184.036 315.051 183.08 314.412 182.442C308.188 176.063 307.869 168.248 309.305 160.115C310.103 156.128 312.976 154.852 316.966 155.968C317.764 156.287 318.562 156.606 319.519 156.925C320.158 155.171 320.637 153.417 321.275 151.822C322.392 148.951 324.148 146.559 326.861 144.965C330.372 142.891 333.405 143.848 335.16 147.516C335.799 148.792 336.118 150.227 336.596 151.822C337.714 151.344 338.831 150.865 339.789 150.387C344.417 148.473 347.768 150.227 348.566 155.331C348.726 156.766 348.726 158.201 348.566 159.477C348.407 160.912 347.928 162.188 347.609 163.623C356.706 166.972 357.983 175.584 349.365 181.325C349.684 182.282 350.322 183.08 350.482 184.036C351.599 188.023 350.003 190.894 346.173 192.329C344.098 193.127 342.023 193.286 339.948 192.967C333.564 191.851 327.021 191.213 320.796 188.821C320.477 188.661 320.158 188.821 319.36 188.98C318.562 190.416 317.604 192.17 316.806 193.765C313.933 198.868 311.38 204.131 308.188 209.074C301.325 219.759 291.589 226.776 279.46 230.444C271.001 232.996 262.223 234.272 253.445 234.75C251.689 234.75 249.934 234.91 247.859 235.069C247.699 236.026 247.221 236.823 247.38 237.621C248.338 242.405 248.019 247.508 250.413 251.974C251.211 253.409 250.732 255.482 251.051 257.077C252.009 262.34 252.966 267.602 253.924 272.706C255.201 278.925 254.722 276.693 255.999 282.912L181.944 304.123ZM137.097 129.655C136.139 131.09 135.501 131.887 135.022 132.844C130.553 141.456 125.925 150.068 121.456 158.68C118.743 163.942 116.029 169.365 113.157 175.106C113.157 175.106 113.157 175.584 113.316 176.063C117.625 188.98 123.052 201.1 132.149 211.307C141.246 221.514 151.939 229.487 165.027 233.634C179.231 238.099 193.595 240.013 208.278 236.664C216.418 234.91 224.557 233.155 232.059 229.647C246.423 223.108 258.552 213.54 268.607 201.419C276.906 191.372 279.619 179.412 280.098 166.813C280.417 159.955 279.3 153.098 278.981 146.24C278.821 144.167 278.023 143.051 276.427 141.934C270.682 138.107 265.734 133.163 261.425 127.9C258.073 123.754 254.722 119.767 251.21 115.78C250.572 114.983 249.774 114.504 248.657 113.707C248.338 115.78 248.178 117.375 247.859 118.81C246.263 126.625 240.039 129.495 234.612 129.495C228.388 129.495 222.802 127.9 217.375 125.189C215.939 124.551 214.662 123.914 213.226 123.116C213.066 123.754 212.907 124.073 212.747 124.392C212.747 124.711 212.907 125.03 212.907 125.508C213.226 129.974 210.832 133.004 206.203 134.439C204.927 134.758 203.49 134.917 202.054 134.917C196.627 135.077 191.68 133.323 186.892 130.931C185.296 130.133 184.019 128.698 181.944 129.017C181.944 130.293 181.785 131.568 181.625 132.685C181.465 135.555 180.189 137.788 177.954 139.383C176.358 140.499 174.603 141.297 172.847 142.094C169.176 143.529 165.186 143.21 161.356 142.732C153.855 141.616 147.311 137.948 141.406 133.482C140.289 132.206 139.012 131.09 137.097 129.655ZM278.183 136.353C278.502 132.047 277.704 128.06 276.747 124.233C274.991 117.056 273.076 109.88 271.32 102.703C268.128 90.2639 262.383 79.26 253.285 70.3292C237.964 55.1789 219.291 48.0025 197.904 47.843C192.159 47.843 186.253 48.7998 180.508 49.7567C168.857 51.6704 157.366 54.86 146.992 60.7606C132.787 68.575 121.296 78.941 114.753 94.0913C113.635 96.643 112.518 99.3541 111.561 101.906C106.453 114.504 103.581 127.582 104.219 141.137C104.379 143.21 104.379 145.443 104.698 147.516C105.815 154.374 107.411 161.072 109.805 167.61C110.124 168.248 110.603 168.886 111.401 170.002C112.199 168.248 112.997 166.972 113.476 165.697C119.062 152.3 126.084 139.542 133.266 126.944C133.905 125.827 134.543 124.87 135.341 123.914C136.458 122.638 137.895 122.638 139.012 123.754C139.331 124.073 139.331 124.392 139.65 124.551C144.598 130.612 150.982 134.758 158.323 136.991C162.792 138.426 167.421 138.745 171.889 137.469C176.837 136.034 178.752 132.685 176.997 127.741C176.358 125.668 174.922 123.595 173.964 121.681C173.485 120.724 172.847 119.927 172.528 118.97C172.368 118.491 172.687 117.534 173.166 117.056C173.645 116.578 174.443 116.418 175.081 116.578C175.879 116.897 176.677 117.375 177.156 118.013C181.625 122.478 186.892 125.668 192.637 128.06C195.67 129.495 199.021 130.133 202.373 130.133C203.969 130.133 205.405 129.655 206.842 129.017C208.119 128.538 208.597 127.263 208.438 125.987C208.278 124.711 207.799 123.595 207.321 122.478C206.682 121.043 206.044 119.608 205.405 118.172C204.927 116.897 205.086 115.461 206.363 114.823C207.161 114.345 208.597 114.345 209.395 114.664C210.991 115.302 212.428 116.418 213.864 117.375C218.493 120.724 223.6 123.276 229.186 124.233C231.42 124.711 233.814 124.87 236.049 124.711C239.56 124.551 242.273 122.797 243.231 119.289C244.348 114.983 244.827 110.677 242.113 106.531C240.996 104.936 241.475 103.979 243.231 103.341C244.667 102.703 245.944 102.863 247.061 104.138C250.093 107.487 253.285 110.836 256.318 114.345C259.989 118.491 263.18 122.957 266.851 126.944C269.884 130.133 273.235 133.004 276.427 136.034C276.906 136.193 277.545 136.193 278.183 136.353ZM244.667 251.336C243.231 245.276 242.752 238.897 240.677 232.836C240.517 232.358 239.879 232.199 239.56 231.88C223.919 238.897 207.64 243.202 190.243 243.362C190.084 246.392 189.924 249.263 189.765 251.974C189.765 254.844 188.967 257.874 190.084 260.745C205.405 261.861 220.248 259.31 234.772 255.482C237.964 254.525 241.475 253.887 244.667 251.336ZM188.169 283.072C189.605 283.391 190.722 283.71 191.68 283.869C196.308 284.507 200.777 283.869 205.246 282.912C215.62 280.839 225.994 278.766 236.208 276.374C240.677 275.417 244.507 272.865 248.338 270.154C247.699 266.327 247.061 262.659 246.263 258.991C246.103 258.193 245.465 257.555 245.305 257.236C238.762 258.831 232.697 260.266 226.473 261.861C220.567 263.456 214.503 264.572 208.278 264.891C201.894 265.21 195.67 265.37 189.286 265.529C188.967 266.646 188.488 267.443 188.328 268.24C188.169 273.025 188.009 277.809 188.169 283.072ZM65.4361 257.555C67.6705 258.034 69.2665 257.555 71.0221 257.077C76.2889 255.482 80.1193 251.814 83.9497 247.987C84.7477 247.189 85.2265 245.914 85.5457 244.638C86.3437 240.651 86.9821 236.664 87.4609 232.677C87.9397 227.893 87.6205 223.108 86.1841 218.483C85.7053 216.889 84.9073 215.134 83.9497 213.699C82.9921 212.104 81.2365 212.104 79.9597 213.38C78.0445 215.134 77.0869 217.367 77.2465 220.078C77.2465 221.035 77.7253 222.151 77.8849 223.108C78.3637 225.341 76.9273 226.776 75.0121 225.979C73.2565 225.341 71.5009 224.225 70.0645 223.108C66.0745 220.078 61.6057 218.802 56.8177 218.483C54.5833 218.324 53.6257 219.919 54.5833 221.992C55.3813 224.225 57.1369 225.819 59.0521 227.095C60.0097 227.893 61.1269 228.531 61.9249 229.328C62.8825 230.285 62.2441 232.517 60.9673 232.836C60.0097 232.996 58.8925 232.996 57.7753 233.155C56.1793 233.155 54.5833 233.155 52.9873 233.315C52.6681 233.315 52.0297 233.953 52.0297 234.272C52.0297 234.75 52.1893 235.388 52.6681 235.548C54.2641 236.345 55.8601 237.142 57.4561 237.78C58.4137 238.099 59.5309 237.94 60.4885 238.418C61.1269 238.737 62.0845 239.534 62.0845 240.172C62.2441 240.81 61.6057 241.927 60.9673 242.405C59.8501 243.202 58.2541 243.362 57.1369 244C56.3389 244.478 55.3813 245.435 55.2217 246.392C54.9025 247.668 56.1793 247.987 57.1369 248.465C59.0521 249.263 60.9673 249.103 62.5633 247.827C63.2017 247.189 63.8401 246.551 64.6381 246.232C65.2765 246.073 66.2341 246.073 66.5533 246.392C67.0321 246.87 67.5109 247.827 67.5109 248.625C67.5109 249.422 66.8725 250.219 66.3937 251.017C65.1169 252.931 64.7977 255.004 65.4361 257.555ZM313.774 160.274C312.337 164.74 312.976 169.205 314.093 173.511C314.572 175.584 315.689 177.498 317.604 178.614C318.721 179.252 319.679 180.05 319.998 181.166C320.956 183.558 323.031 184.674 325.265 185.153C330.372 186.269 335.639 187.067 340.906 187.864C341.704 188.023 342.661 187.864 343.459 187.704C344.577 187.545 345.694 187.226 345.853 185.95C345.853 185.153 345.375 184.196 344.896 183.717C344.098 182.92 342.98 182.282 341.863 181.644C340.746 181.006 339.789 180.209 340.108 178.774C340.427 177.657 341.385 177.179 342.502 177.019C343.619 176.86 344.736 176.86 345.694 176.541C346.971 176.063 348.247 175.425 349.365 174.627C350.482 173.67 350.801 172.235 350.163 170.8C349.524 169.365 348.407 168.408 346.811 168.727C344.896 169.046 343.14 169.683 341.225 170.162C340.267 170.481 339.31 171.119 338.193 171.119C337.554 171.119 336.597 170.481 336.118 169.843C335.799 169.365 335.958 168.408 336.277 167.929C337.235 166.653 338.512 165.697 339.629 164.58C341.225 163.145 342.821 161.71 343.459 159.636C344.098 157.563 344.577 155.49 342.502 153.736C338.831 155.331 336.756 158.361 335.639 162.029C335.16 163.304 334.841 164.74 334.203 166.016C333.883 166.494 332.607 166.813 331.809 166.653C331.33 166.653 330.532 165.697 330.532 165.218C330.532 163.623 330.851 162.029 330.851 160.593C331.011 157.404 331.17 154.214 331.17 151.184C331.17 150.227 330.372 149.43 330.053 148.633C327.978 148.633 327.18 149.908 326.542 151.025C324.786 153.736 323.988 156.766 323.988 160.115C323.988 162.029 323.988 163.942 323.669 165.856C323.509 166.494 322.711 167.451 321.913 167.61C321.275 167.77 319.998 167.451 319.679 166.813C318.721 165.537 318.242 163.942 317.444 162.667C316.806 161.391 316.008 160.115 313.774 160.274ZM107.411 175.584C105.655 174.308 103.74 173.989 101.665 173.989C97.5157 173.83 94.3237 175.584 92.5681 179.093C89.8549 184.355 89.5357 189.937 94.0045 194.721C94.6429 195.359 95.2813 195.997 95.9197 196.635C102.942 203.333 111.401 206.842 120.977 207.958C121.456 207.958 121.775 207.639 122.573 207.32C116.827 196.954 111.72 186.269 107.411 175.584ZM284.886 167.61C293.824 160.593 300.048 148.314 301.165 141.775C301.804 138.107 301.804 134.439 300.527 130.771C299.889 128.698 298.612 126.944 297.016 125.508C295.579 124.233 293.983 123.914 292.068 124.711C287.44 126.465 284.407 129.814 283.769 134.758C283.29 138.267 283.29 141.775 283.928 145.283C284.727 149.589 285.046 154.055 284.567 158.361C284.567 161.231 284.886 164.102 284.886 167.61Z" fill="#8B254A"/>
<path fill-rule="evenodd" clip-rule="evenodd" d="M224.398 187.704C224.078 189.778 223.759 191.851 223.44 193.924C222.642 198.23 219.929 201.1 216.098 203.014C210.512 205.725 200.457 205.087 196.627 196.635C195.51 194.083 194.552 191.372 193.754 188.661C193.435 187.545 193.754 186.11 194.073 184.993C194.393 184.355 195.35 183.717 196.148 183.717C196.787 183.717 197.744 184.515 197.904 185.312C198.383 186.907 198.542 188.821 198.861 190.415C199.181 191.532 199.659 192.648 200.298 193.764C202.851 199.187 207.32 200.303 213.226 198.868C215.779 198.23 217.854 196.635 218.492 194.083C219.45 190.734 220.407 187.226 218.971 183.717C218.811 183.239 218.492 182.761 218.333 182.282C218.014 181.006 218.652 179.73 219.769 179.252C220.886 178.774 221.844 179.412 222.482 180.368C223.759 182.761 224.398 185.153 224.398 187.704Z" fill="#8B254A"/>
<path fill-rule="evenodd" clip-rule="evenodd" d="M193.116 187.38C193.435 185.306 193.755 183.233 194.074 181.16C194.872 176.854 197.585 173.984 201.415 172.07C207.001 169.359 217.056 169.997 220.887 178.449C222.004 181.001 222.961 183.712 223.759 186.423C224.079 187.539 223.759 188.974 223.44 190.091C223.121 190.729 222.163 191.367 221.365 191.367C220.727 191.367 219.769 190.569 219.61 189.772C219.131 188.177 218.971 186.263 218.652 184.669C218.333 183.552 217.854 182.436 217.216 181.32C214.662 175.897 210.193 174.781 204.288 176.216C201.735 176.854 199.66 178.449 199.021 181.001C198.064 184.35 197.106 187.858 198.543 191.367C198.702 191.845 199.021 192.323 199.181 192.802C199.5 194.078 198.862 195.354 197.745 195.832C196.627 196.31 195.67 195.672 195.031 194.716C193.755 192.323 193.116 189.931 193.116 187.38Z" fill="#8B254A"/>
<path fill-rule="evenodd" clip-rule="evenodd" d="M168.856 173.671C168.856 177.977 168.058 180.847 164.707 182.442C161.834 183.718 158.961 183.877 156.088 182.123C153.216 180.369 152.577 177.339 152.896 174.309C153.375 170.641 154.971 167.611 158.482 166.016C162.153 164.421 166.143 165.697 167.739 169.365C168.378 171.119 168.697 172.873 168.856 173.671Z" fill="#8B254A"/>
<path fill-rule="evenodd" clip-rule="evenodd" d="M239.719 166.654C236.686 166.654 234.612 164.9 233.335 162.507C231.898 159.637 231.579 156.607 233.654 153.896C235.569 151.344 237.963 148.952 241.634 149.749C244.986 150.387 246.103 153.258 247.22 156.288C248.816 160.434 244.188 167.292 239.719 166.654Z" fill="#8B254A"/>
<path fill-rule="evenodd" clip-rule="evenodd" d="M187.371 302.369C187.69 297.584 187.211 295.511 187.69 290.727C187.69 290.089 188.169 289.451 188.328 288.653C189.126 288.494 189.765 288.335 190.403 288.494C198.064 289.132 205.565 287.697 212.907 286.102C220.887 284.348 228.867 282.912 236.687 281.158C238.762 280.68 240.677 279.882 242.592 279.085C244.667 278.128 246.582 277.012 249.295 275.736C249.455 276.852 249.934 280.839 250.413 282.912C234.293 295.352 208.278 304.92 187.371 302.369Z" fill="#3CDC8C"/>
</g>
<defs>
<clipPath id="clip0">
<rect width="399" height="488" fill="white"/>
</clipPath>
</defs>
</svg>
