<svg width="79" height="88" viewBox="0 0 79 88" fill="none" xmlns="http://www.w3.org/2000/svg">
<path d="M78.2222 22.3313V53.4038C78.2222 65.7365 67.9024 75.7351 55.1736 75.7351H52.8424L40.9373 87.2622C40.471 87.7139 39.826 88 39.1111 88C38.4506 88 37.8522 87.7666 37.3937 87.3751L37.1917 87.1793L37.1839 87.1718L25.3799 75.7351H23.0408C10.3198 75.7351 0 65.7365 0 53.4038V22.3313C0 9.99863 10.3198 0 23.0486 0H55.1736C67.9024 0 78.2222 9.99863 78.2222 22.3313Z" fill="#D3E2E5"/>
<path d="M30.7304 32.3808H17.0381V25.6901C17.0381 21.9967 20.1049 18.9995 23.8842 18.9995C27.6636 18.9995 30.7304 21.9967 30.7304 25.6901V32.3808Z" fill="white"/>
<path d="M59.6479 32.3808H45.9556V25.6901C45.9556 21.9967 49.0224 18.9995 52.8017 18.9995C56.581 18.9995 59.6479 21.9967 59.6479 25.6901V32.3808Z" fill="white"/>
<rect x="25.667" y="47.667" width="25.6667" height="11" rx="4" fill="white"/>
</svg>
